#!OML:ASF H:\Dans Jumps\Project 1\Capture day 1\Session 1\subject.ASF
:FULLY-SPECIFIED
:DEGREES
155
root 0.577968 17.62 -14.134 5.78822 -0.0213912 -1.29961
lowerback -4.42164 -0.438005 -0.031143
upperback 3.1813 -0.662451 1.47464
thorax 5.80147 -0.361643 1.48782
lowerneck -12.3482 0.471312 -2.00234
upperneck 35.7976 1.01584 0.675289
head 14.3175 0.255562 0.78799
rclavicle -2.5842e-015 9.14409e-015
rhumerus -22.6165 -10.6897 -84.6967
rradius 24.4278
rwrist 32.7141
rhand -19.5548 -26.6546
rfingers 7.12502
rthumb 6.76955 -56.5264
lclavicle -2.5842e-015 9.14409e-015
lhumerus -19.1427 -8.12372 91.4259
lradius 19.0037
lwrist 1.63365
lhand -25.3241 -4.25097
lfingers 7.12502
lthumb 1.19857 25.7254
rfemur -11.0948 -3.39952 19.2899
rtibia 18.7529
rfoot -12.4235 -3.49635
rtoes 11.5609
lfemur -8.8808 5.68942 -17.4216
ltibia 15.4692
lfoot -9.74418 5.88714
ltoes 0.282928
156
root 0.578424 17.6198 -14.1355 5.7846 -0.0173604 -1.3016
lowerback -4.41458 -0.437664 -0.0285074
upperback 3.17807 -0.662034 1.4739
thorax 5.79396 -0.361279 1.48564
lowerneck -12.3593 0.469676 -1.9912
upperneck 35.7917 1.0116 0.672243
head 14.3174 0.254884 0.784142
rclavicle -7.55382e-015 -6.95746e-015
rhumerus -22.6045 -10.6899 -84.6984
rradius 24.4367
rwrist 32.7073
rhand -19.5556 -26.6567
rfingers 7.12502
rthumb 6.7688 -56.5285
lclavicle -7.55382e-015 -6.95746e-015
lhumerus -19.1282 -8.14338 91.4253
lradius 19.0092
lwrist 1.6392
lhand -25.3285 -4.26895
lfingers 7.12502
lthumb 1.19433 25.7075
rfemur -11.0984 -3.39701 19.2907
rtibia 18.7588
rfoot -12.4215 -3.50343
rtoes 11.5515
lfemur -8.89046 5.68388 -17.4206
ltibia 15.4839
lfoot -9.745 5.88728
ltoes 0.292571
157
root 0.578908 17.6197 -14.1369 5.78117 -0.0108947 -1.30426
lowerback -4.40866 -0.438179 -0.0258315
upperback 3.17533 -0.662827 1.47402
thorax 5.78768 -0.361536 1.48422
lowerneck -12.3641 0.466806 -1.98685
upperneck 35.7809 1.0049 0.675603
head 14.3136 0.253157 0.783638
rclavicle -3.47873e-016 -8.54774e-015
rhumerus -22.5924 -10.6881 -84.7001
rradius 24.4461
rwrist 32.6964
rhand -19.5517 -26.6668
rfingers 7.12502
rthumb 6.77263 -56.5385
lclavicle -3.47873e-016 -8.54774e-015
lhumerus -19.1122 -8.16018 91.4257
lradius 19.0091
lwrist 1.64057
lhand -25.3292 -4.29315
lfingers 7.12502
lthumb 1.19359 25.6833
rfemur -11.1022 -3.39715 19.2923
rtibia 18.7654
rfoot -12.4195 -3.51001
rtoes 11.5436
lfemur -8.90007 5.67682 -17.4191
ltibia 15.4965
lfoot -9.74464 5.88697
ltoes 0.294007
158
root 0.579513 17.6196 -14.1384 5.77707 -0.00429949 -1.30438
lowerback -4.4023 -0.439757 -0.026569
upperback 3.17331 -0.664864 1.47512
thorax 5.78199 -0.362572 1.48561
lowerneck -12.3703 0.463777 -1.9878
upperneck 35.7691 0.998249 0.682352
head 14.3096 0.251191 0.785466
rclavicle -6.60959e-015 2.20651e-014
rhumerus -22.5785 -10.6851 -84.6999
rradius 24.4517
rwrist 32.6857
rhand -19.5501 -26.6777
rfingers 7.12502
rthumb 6.77411 -56.5493
lclavicle -6.60959e-015 2.20651e-014
lhumerus -19.0966 -8.17396 91.4277
lradius 19.0102
lwrist 1.64217
lhand -25.3277 -4.32367
lfingers 7.12502
lthumb 1.19503 25.6527
rfemur -11.106 -3.40216 19.2904
rtibia 18.7728
rfoot -12.4172 -3.51172
rtoes 11.5268
lfemur -8.90722 5.66873 -17.4208
ltibia 15.5061
lfoot -9.74327 5.8864
ltoes 0.301193
159
root 0.580115 17.6195 -14.1398 5.7726 0.00135843 -1.30437
lowerback -4.39428 -0.442111 -0.0298862
upperback 3.17081 -0.667824 1.47785
thorax 5.77492 -0.3642 1.49007
lowerneck -12.3733 0.461318 -1.9932
upperneck 35.7558 0.992471 0.692155
head 14.3041 0.249428 0.789423
rclavicle 7.65321e-015 -6.95746e-015
rhumerus -22.5665 -10.6742 -84.6996
rradius 24.4589
rwrist 32.6745
rhand -19.5485 -26.6893
rfingers 7.12502
rthumb 6.77567 -56.5609
lclavicle 7.65321e-015 -6.95746e-015
lhumerus -19.0844 -8.18505 91.4313
lradius 19.0131
lwrist 1.64264
lhand -25.3244 -4.35496
lfingers 7.12502
lthumb 1.19821 25.6214
rfemur -11.1095 -3.40696 19.2881
rtibia 18.78
rfoot -12.4139 -3.51296
rtoes 11.5047
lfemur -8.91275 5.66126 -17.4227
ltibia 15.5142
lfoot -9.74142 5.8855
ltoes 0.311984
160
root 0.580741 17.6194 -14.1412 5.76694 0.00615684 -1.3024
lowerback -4.38393 -0.444685 -0.036277
upperback 3.16756 -0.670865 1.48112
thorax 5.76578 -0.365994 1.49682
lowerneck -12.3739 0.459021 -1.99931
upperneck 35.742 0.987236 0.701471
head 14.2978 0.247745 0.793368
rclavicle 3.67752e-015 -1.27222e-014
rhumerus -22.5574 -10.6592 -84.6977
rradius 24.4654
rwrist 32.6626
rhand -19.5516 -26.6953
rfingers 7.12502
rthumb 6.77266 -56.567
lclavicle 3.67752e-015 -1.27222e-014
lhumerus -19.0758 -8.20047 91.4375
lradius 19.0186
lwrist 1.64717
lhand -25.3259 -4.38274
lfingers 7.12502
lthumb 1.19682 25.5936
rfemur -11.1114 -3.4112 19.2835
rtibia 18.7867
rfoot -12.4112 -3.5136
rtoes 11.495
lfemur -8.91637 5.65409 -17.4269
ltibia 15.5217
lfoot -9.74003 5.88487
ltoes 0.321972
161
root 0.581336 17.6193 -14.1427 5.76225 0.0100248 -1.30163
lowerback -4.37193 -0.447266 -0.0416744
upperback 3.16273 -0.673969 1.48472
thorax 5.75402 -0.367773 1.50337
lowerneck -12.3761 0.457833 -2.00188
upperneck 35.7309 0.983675 0.708096
head 14.2932 0.246863 0.795881
rclavicle 6.80837e-015 -1.41137e-014
rhumerus -22.5496 -10.6461 -84.6954
rradius 24.4691
rwrist 32.6575
rhand -19.5552 -26.6925
rfingers 7.12502
rthumb 6.76922 -56.5642
lclavicle 6.80837e-015 -1.41137e-014
lhumerus -19.0717 -8.22034 91.4442
lradius 19.0265
lwrist 1.65413
lhand -25.3297 -4.40297
lfingers 7.12502
lthumb 1.19318 25.5734
rfemur -11.1141 -3.41308 19.2804
rtibia 18.7924
rfoot -12.4085 -3.51503
rtoes 11.4958
lfemur -8.92158 5.65015 -17.4297
ltibia 15.5301
lfoot -9.7403 5.88182
ltoes 0.331827
162
root 0.581839 17.6192 -14.1443 5.75766 0.0147598 -1.30214
lowerback -4.35769 -0.449783 -0.0449984
upperback 3.1565 -0.677066 1.48783
thorax 5.73948 -0.369437 1.50824
lowerneck -12.3782 0.456877 -2.00076
upperneck 35.7215 0.980381 0.712102
head 14.2893 0.246221 0.796729
rclavicle -1.68967e-015 -1.37161e-014
rhumerus -22.5449 -10.632 -84.6944
rradius 24.4735
rwrist 32.6514
rhand -19.558 -26.6864
rfingers 7.12502
rthumb 6.76649 -56.5583
lclavicle -1.68967e-015 -1.37161e-014
lhumerus -19.0719 -8.25086 91.4512
lradius 19.0394
lwrist 1.66956
lhand -25.3377 -4.40516
lfingers 7.12502
lthumb 1.18545 25.5713
rfemur -11.1165 -3.40981 19.2793
rtibia 18.7974
rfoot -12.4049 -3.52259
rtoes 11.4994
lfemur -8.92817 5.6489 -17.4308
ltibia 15.5394
lfoot -9.74072 5.87598
ltoes 0.332252
